<?xml version="1.0" encoding="UTF-8" standalone="no" ?>
<!DOCTYPE svg PUBLIC "-//W3C//DTD SVG 1.1//EN" "http://www.w3.org/Graphics/SVG/1.1/DTD/svg11.dtd">
<svg xmlns="http://www.w3.org/2000/svg" xmlns:xlink="http://www.w3.org/1999/xlink" version="1.1" width="640" height="640" viewBox="0 0 640 640" xml:space="preserve">
<desc>Created with Fabric.js 4.6.0</desc>
<defs>
</defs>
<g transform="matrix(1 0 0 1 320 320)" id="rirrl4Wgew3XHF1cn7BYm"  >
<path style="stroke: rgb(255,54,210); stroke-width: 0; stroke-dasharray: none; stroke-linecap: butt; stroke-dashoffset: 0; stroke-linejoin: miter; stroke-miterlimit: 4; fill: rgb(62,127,142); fill-rule: nonzero; opacity: 1;" vector-effect="non-scaling-stroke"  transform=" translate(-320, -320)" d="M 0 0 L 640 0 L 640 640 L 0 640 z" stroke-linecap="round" />
</g>
<g transform="matrix(1.02 0 0 1.02 320 320)" id="z7tvlCrMuYMaqTb9wHZeK"  >
<linearGradient id="SVGID_color_x5F_1_1__9_0" gradientUnits="userSpaceOnUse" gradientTransform="matrix(1 0 0 1 0 0)"  x1="0.0176" y1="300" x2="599.9824" y2="300">
<stop offset="7.41%" style="stop-color:rgb(180,96,236);stop-opacity: 1"/>
<stop offset="35.25%" style="stop-color:rgb(203,105,215);stop-opacity: 1"/>
<stop offset="85.98%" style="stop-color:rgb(255,125,169);stop-opacity: 1"/>
</linearGradient>
<path style="stroke: none; stroke-width: 1; stroke-dasharray: none; stroke-linecap: butt; stroke-dashoffset: 0; stroke-linejoin: miter; stroke-miterlimit: 4; fill: url(#SVGID_color_x5F_1_1__9_0); fill-rule: nonzero; opacity: 1;" vector-effect="non-scaling-stroke"  transform=" translate(-300, -300)" d="M 599.982 300 L 300.018 600 L 0.01799999999997226 300 L 300.006 0 L 599.982 300 z" stroke-linecap="round" />
</g>
<g transform="matrix(0.9 0 0 0.9 320 320)" id="xRy9VcUPtfnxZZo0hfvbO"  >
<g style="" vector-effect="non-scaling-stroke"   >
		<g transform="matrix(1 0 0 1 -10.79 -4.45)" id="Cq0UjJUub_KpawxyFcFBC"  >
<path style="stroke: none; stroke-width: 1; stroke-dasharray: none; stroke-linecap: butt; stroke-dashoffset: 0; stroke-linejoin: miter; stroke-miterlimit: 4; fill: rgb(89,173,193); fill-rule: nonzero; opacity: 1;" vector-effect="non-scaling-stroke"  transform=" translate(-289.21, -295.55)" d="M 130.8 154.258 C 87.018 158.91 43.381 165.374 0 173.649 C 0 173.649 62.468 141.065 131.78 114.045 L 130.8 154.258 z M 263.566 260.873 C 135.146 287.24 58.74 334.03 58.74 334.03 C 150.415 316.542 243.51500000000001 309.133 336.402 311.75899999999996 C 471.553 281.18799999999993 578.427 286.73699999999997 578.427 286.73699999999997 C 474.463 266.905 368.911 258.289 263.566 260.873 z M 353.817 477.058 C 413.731 460.611 519.686 447.11899999999997 519.686 447.11899999999997 C 476.232 438.82899999999995 432.42500000000007 433.042 388.47800000000007 429.71599999999995 L 353.817 477.058 z" stroke-linecap="round" />
</g>
		<g transform="matrix(1 0 0 1 0 0)" id="toewvV4lBl9XuMM1LSt_F"  >
<path style="stroke: none; stroke-width: 1; stroke-dasharray: none; stroke-linecap: butt; stroke-dashoffset: 0; stroke-linejoin: miter; stroke-miterlimit: 4; fill: rgb(213,232,26); fill-rule: nonzero; opacity: 1;" vector-effect="non-scaling-stroke"  transform=" translate(-300, -300)" d="M 418.398 462.906 L 444.91900000000004 499.999 L 353.817 477.05800000000005 C 372.422 471.95 395.466 467.129 418.398 462.906 z M 131.78 114.046 C 131.78 114.046 89.172 107.05000000000001 48.44500000000001 100.001 L 85.177 133.344 C 99.873 126.931 115.641 120.338 131.78 114.046 z M 600 173.649 C 401.786 135.838 198.214 135.838 0 173.649 C 7.191 211.346 14.382 249.042 21.573 286.73699999999997 C 205.53300000000002 251.64499999999998 394.467 251.64499999999998 578.427 286.73699999999997 C 585.618 249.042 592.809 211.347 600 173.649 z M 519.687 447.118 C 374.539 419.429 225.462 419.429 80.31299999999999 447.118 C 73.12299999999999 409.423 65.93099999999998 371.725 58.740999999999985 334.03 C 218.14299999999997 303.62199999999996 381.858 303.62199999999996 541.261 334.03 C 534.069 371.726 526.878 409.423 519.687 447.118 z" stroke-linecap="round" />
</g>
</g>
</g>
<g transform="matrix(1 0 0 1 320 260.15)" id="gyGx5Q5fLjnAt4lbaUguH"  >
<g style="" vector-effect="non-scaling-stroke"   >
		<g transform="matrix(1.87 -1.87 1.87 1.87 0 -38.31)" id="YWBR0YinavKrj6pnbOfPz"  >
<path style="stroke: none; stroke-width: 1; stroke-dasharray: none; stroke-linecap: butt; stroke-dashoffset: 0; stroke-linejoin: miter; stroke-miterlimit: 4; fill: rgb(0,0,0); fill-rule: nonzero; opacity: 1;" vector-effect="non-scaling-stroke"  transform=" translate(0, 0)" d="M -44.7443 -35.2557 L -35.255700000000004 -44.744299999999996 L 44.744299999999996 35.255700000000004 L 35.2557 44.7443 L -35.2557 35.255700000000004 z" stroke-linecap="round" />
</g>
		<g transform="matrix(0.61 0 0 2.67 0 139.11)" id="hTvH2NaZfaxGiGv2BgQO1"  >
<path style="stroke: rgb(118,193,123); stroke-width: 0; stroke-dasharray: none; stroke-linecap: butt; stroke-dashoffset: 0; stroke-linejoin: miter; stroke-miterlimit: 4; fill: rgb(0,0,0); fill-rule: nonzero; opacity: 1;" vector-effect="non-scaling-stroke"  transform=" translate(0, 0)" d="M -34.87462 -25.33169 L 34.87462 -25.33169 L 34.87462 25.331680000000002 L -34.87462 14.284690000000003 z" stroke-linecap="round" />
</g>
</g>
</g>
<g transform="matrix(0.93 -0.93 0.93 0.93 387.52 275.44)" id="ckC4YrngM2bMl5vk_gQ2i"  >
<path style="stroke: none; stroke-width: 1; stroke-dasharray: none; stroke-linecap: butt; stroke-dashoffset: 0; stroke-linejoin: miter; stroke-miterlimit: 4; fill: rgb(255,255,255); fill-rule: nonzero; opacity: 1;" vector-effect="non-scaling-stroke"  transform=" translate(0, 0)" d="M -38.96331 -13.04643 L 50.032599999999995 13.04644 L -50.032590000000006 -1.9771400000000003 z" stroke-linecap="round" />
</g>
<g transform="matrix(0 -1.29 1.29 0 314.2 390.4)" id="JfUYsSwWxLeWy8AHLMLpu"  >
<path style="stroke: none; stroke-width: 1; stroke-dasharray: none; stroke-linecap: butt; stroke-dashoffset: 0; stroke-linejoin: miter; stroke-miterlimit: 4; fill: rgb(255,255,255); fill-rule: nonzero; opacity: 1;" vector-effect="non-scaling-stroke"  transform=" translate(0, 0)" d="M -31.55915 -4.10485 L 37.40491 -4.10485 L 32.18137 4.1048599999999995 L -37.4049 4.1048599999999995 z" stroke-linecap="round" />
</g>
</svg>